<!-- <svg width="24" height="24" viewBox="0 0 24 24" fill="none" xmlns="http://www.w3.org/2000/svg">
<path d="M19 3C19.5304 3 20.0391 3.21071 20.4142 3.58579C20.7893 3.96086 21 4.46957 21 5V19C21 19.5304 20.7893 20.0391 20.4142 20.4142C20.0391 20.7893 19.5304 21 19 21H5C4.46957 21 3.96086 20.7893 3.58579 20.4142C3.21071 20.0391 3 19.5304 3 19V5C3 4.46957 3.21071 3.96086 3.58579 3.58579C3.96086 3.21071 4.46957 3 5 3H19ZM18.5 18.5V13.2C18.5 12.3354 18.1565 11.5062 17.5452 10.8948C16.9338 10.2835 16.1046 9.94 15.24 9.94C14.39 9.94 13.4 10.46 12.92 11.24V10.13H10.13V18.5H12.92V13.57C12.92 12.8 13.54 12.17 14.31 12.17C14.6813 12.17 15.0374 12.3175 15.2999 12.5801C15.5625 12.8426 15.71 13.1987 15.71 13.57V18.5H18.5ZM6.88 8.56C7.32556 8.56 7.75288 8.383 8.06794 8.06794C8.383 7.75288 8.56 7.32556 8.56 6.88C8.56 5.95 7.81 5.19 6.88 5.19C6.43178 5.19 6.00193 5.36805 5.68499 5.68499C5.36805 6.00193 5.19 6.43178 5.19 6.88C5.19 7.81 5.95 8.56 6.88 8.56ZM8.27 18.5V10.13H5.5V18.5H8.27Z" fill="white"/>
</svg> -->


<svg width="34" height="34" viewBox="0 0 34 34" fill="none" xmlns="http://www.w3.org/2000/svg">
<rect x="0.999756" y="1" width="32" height="32" rx="16" stroke="white" stroke-width="1.2"/>
<path d="M24 8C24.5304 8 25.0391 8.21071 25.4142 8.58579C25.7893 8.96086 26 9.46957 26 10V24C26 24.5304 25.7893 25.0391 25.4142 25.4142C25.0391 25.7893 24.5304 26 24 26H10C9.46957 26 8.96086 25.7893 8.58579 25.4142C8.21071 25.0391 8 24.5304 8 24V10C8 9.46957 8.21071 8.96086 8.58579 8.58579C8.96086 8.21071 9.46957 8 10 8H24ZM23.5 23.5V18.2C23.5 17.3354 23.1565 16.5062 22.5452 15.8948C21.9338 15.2835 21.1046 14.94 20.24 14.94C19.39 14.94 18.4 15.46 17.92 16.24V15.13H15.13V23.5H17.92V18.57C17.92 17.8 18.54 17.17 19.31 17.17C19.6813 17.17 20.0374 17.3175 20.2999 17.5801C20.5625 17.8426 20.71 18.1987 20.71 18.57V23.5H23.5ZM11.88 13.56C12.3256 13.56 12.7529 13.383 13.0679 13.0679C13.383 12.7529 13.56 12.3256 13.56 11.88C13.56 10.95 12.81 10.19 11.88 10.19C11.4318 10.19 11.0019 10.3681 10.685 10.685C10.3681 11.0019 10.19 11.4318 10.19 11.88C10.19 12.81 10.95 13.56 11.88 13.56ZM13.27 23.5V15.13H10.5V23.5H13.27Z" fill="white"/>
</svg>
